<?xml version="1.0" encoding="UTF-8" standalone="no"?><!-- Generator: Gravit.io --><svg xmlns="http://www.w3.org/2000/svg" xmlns:xlink="http://www.w3.org/1999/xlink" style="isolation:isolate" viewBox="0 0 600 600" width="600pt" height="600pt"><defs><clipPath id="_clipPath_D2JTjpyJf7o3U47dfZUkTetDOuwcTGs0"><rect width="600" height="600"/></clipPath></defs><g clip-path="url(#_clipPath_D2JTjpyJf7o3U47dfZUkTetDOuwcTGs0)"><clipPath id="_clipPath_QlQE5yXdThC63iV62GmyNp917g3oNI6x"><path d=" M 0 0 L 0 4000 L 4246 4000 L 4246 0 L 0 0 Z " fill="rgb(255,255,255)"/></clipPath><g clip-path="url(#_clipPath_QlQE5yXdThC63iV62GmyNp917g3oNI6x)"><g><path d=" M 0 0 C 0 0 54.73 18.052 61.21 77.817 C 67.68 137.583 81.56 149.922 122.25 165.091 C 162.95 180.271 176.82 206.836 180.52 253.319 C 184.22 299.803 217.52 345.342 273.94 351.035 C 370.7 360.799 323.34 416.175 421.44 459.027 L 438.6 491.479 L 399.62 522.619 C 399.62 522.619 363.65 522.26 351.17 538.393 C 338.68 554.517 326.19 572.066 259.14 559.255 C 192.08 546.455 167.57 596.262 108.84 577.287 C 50.11 558.312 0 595 0 595 L 0 0 Z " fill-rule="evenodd" fill="rgb(227,224,255)"/><path d=" M 0 522.619 L 0 418.185 C 24.6 417.426 47.13 429.878 50.49 459.725 C 50.49 459.725 55.11 456.504 60.48 456.309 C 65.84 456.125 67.88 458.586 67.88 458.586 C 67.88 458.586 67.32 464.094 62.7 466.935 C 58.07 469.787 56.04 470.166 56.04 470.166 C 56.04 470.166 65.28 469.971 70.83 476.802 C 76.39 483.633 75.46 491.408 75.46 491.408 C 75.46 491.408 81.38 473.202 100.99 468.833 C 120.6 464.474 132.8 476.997 132.8 476.997 C 132.8 476.997 134.1 471.684 137.06 468.453 C 140.02 465.233 141.13 465.038 141.13 465.038 C 141.13 465.038 150.01 469.028 153.52 477.376 C 157.04 485.715 186.43 515.193 186.43 515.193 L 184.59 522.619 L 0 522.619 Z " fill-rule="evenodd" fill="rgb(207,199,255)"/><path d=" M 126.37 434.893 C 126.37 434.893 128.42 412.482 111.69 400.574 L 111.04 400.113 L 103.03 405.293 L 107.53 397.733 C 93.93 388.79 88.81 389.364 88.81 389.364 C 88.81 389.364 86.76 427.888 126.37 434.893 Z " fill-rule="evenodd" fill="rgb(207,199,255)"/><path d=" M 62.52 445.509 C 62.52 445.509 70.47 444.186 74.17 436.975 C 77.87 429.765 75.65 423.314 75.65 423.314 C 75.65 423.314 60.86 431.283 62.52 445.509 Z " fill-rule="evenodd" fill="rgb(207,199,255)"/><path d=" M 115.8 454.996 C 115.8 454.996 106.18 449.499 97.86 449.683 C 89.53 449.878 85.46 454.422 85.46 454.422 C 85.46 454.422 93.05 457.468 98.13 457.561 C 103.22 457.653 110.99 457.273 115.8 454.996 Z " fill-rule="evenodd" fill="rgb(207,199,255)"/><path d=" M 29.79 405.426 C 27.9 402.892 24.4 399.169 20.1 398.985 C 13.56 398.687 18.4 405.539 21.95 406.123 C 24.68 406.575 28.76 407.282 30.5 407.58 C 31.16 409.693 31.76 411.847 32.29 414.021 C 30.35 411.764 26.13 407.641 21.37 407.939 C 14.84 408.349 20.34 414.647 23.93 414.852 C 26.72 415.006 30.88 415.283 32.62 415.395 C 33.44 418.934 34.08 422.544 34.53 426.165 C 34.58 426.565 34.63 426.965 34.67 427.365 C 33.58 424.852 30.57 419.016 25.6 417.867 C 19.21 416.38 22.78 424.011 26.18 425.232 C 29.06 426.267 33.5 427.919 34.78 428.391 C 35.91 439.714 35.05 451.048 31.51 460.832 L 32.44 461.181 C 35.69 452.186 36.72 441.919 36.03 431.56 C 37.4 430.442 40.65 427.775 42.84 426.021 C 45.68 423.744 46.67 415.344 41.09 418.852 C 37.72 420.965 36.34 425.334 35.78 428.483 C 35.7 427.662 35.61 426.852 35.51 426.032 C 35.28 424.134 34.99 422.226 34.65 420.339 C 36.06 419.18 39.23 416.595 41.37 414.872 C 44.21 412.595 45.2 404.205 39.61 407.703 C 36.01 409.97 34.68 414.831 34.2 417.99 C 33.77 415.898 33.28 413.826 32.74 411.775 C 33.91 410.564 36.93 407.405 38.94 405.344 C 41.49 402.728 41.49 394.277 36.36 398.441 C 32.89 401.251 32.24 406.585 32.18 409.744 C 31.52 407.426 30.78 405.159 29.98 402.933 C 31.16 401.651 34.04 398.503 35.98 396.421 C 38.47 393.754 38.28 385.292 33.24 389.59 C 29.78 392.533 29.28 398.01 29.32 401.149 C 28.71 399.569 28.07 398.021 27.4 396.503 C 28.09 395.364 30.23 391.784 31.65 389.466 C 33.36 386.677 31.71 379.323 28.06 383.989 C 25.54 387.231 26.09 392.143 26.66 394.872 C 26.05 393.549 25.41 392.256 24.75 390.995 C 23.54 388.092 20.96 383.395 16.7 382.123 C 10.42 380.256 13.53 388.092 16.86 389.518 C 19.3 390.564 22.9 392.154 24.62 392.913 C 25.24 394.164 25.85 395.436 26.43 396.749 C 24.66 394.554 21.77 391.805 18.29 391.651 C 12.45 391.395 16.76 397.508 19.93 398.031 C 22.35 398.421 25.95 399.046 27.52 399.323 C 28.34 401.303 29.09 403.344 29.79 405.426 Z " fill-rule="evenodd" fill="rgb(207,199,255)"/><path d=" M 61.61 394.667 C 61.61 394.667 52.22 385.477 48.59 375.62 C 44.96 365.774 45.39 354.819 45.39 354.819 C 45.39 354.819 47.1 359.199 52.22 363.138 C 67.2 374.666 60.86 380.83 61.61 394.667 Z " fill-rule="evenodd" fill="rgb(207,199,255)"/><path d=" M 73.44 529.409 C 64 528.67 59.21 529.511 52.91 536.999 C 52.91 536.999 68.45 539.47 73.44 529.409 Z " fill-rule="evenodd" fill="rgb(207,199,255)"/><path d=" M 174.05 550.876 C 174.05 550.876 164.4 547.204 157.12 553.532 L 156.84 553.778 L 159.97 556.876 L 155.36 555.112 C 149.76 560.353 149.39 562.794 149.39 562.794 C 149.39 562.794 166.15 568.415 174.05 550.876 Z " fill-rule="evenodd" fill="rgb(207,199,255)"/><path d=" M 112.41 123.008 L 98.15 114.567 L 98.15 114.813 L 98.15 131.45 L 112.41 123.008 Z " fill-rule="evenodd" fill="rgb(227,224,255)"/><path d=" M 242.47 321.28 C 230.87 312.306 225.76 306.059 226.43 290.561 C 226.43 290.561 229.12 294.52 231.39 296.418 C 233.66 298.326 243.71 302.921 242.47 321.28 Z " fill-rule="evenodd" fill="rgb(227,224,255)"/><path d=" M 153.86 218.467 C 153.86 218.467 143.68 207.554 138.13 206.139 C 132.58 204.713 124.26 204.713 124.26 204.713 C 124.26 204.713 129.81 220.601 153.86 218.467 Z " fill-rule="evenodd" fill="rgb(255,255,255)"/><path d=" M 33.59 300.049 L 19.32 291.608 L 19.32 291.864 L 19.32 308.5 L 33.59 300.049 Z " fill-rule="evenodd" fill="rgb(255,255,255)"/><path d=" M 265.63 425.149 L 264.49 418.277 L 308.22 418.277 C 308.22 418.277 327.02 418.893 342.58 424.39 C 358.15 429.878 393.76 450.699 393.76 450.699 C 393.76 450.699 407.49 453.54 421.44 459.027 C 435.38 464.525 438.3 468.217 438.3 468.217 L 421.06 488.731 C 421.06 488.731 319.95 476.976 309.74 467.52 C 299.53 458.073 265.63 425.149 265.63 425.149 Z " fill-rule="evenodd" fill="rgb(153,61,255)"/><path d=" M 323.91 451.591 L 392.52 453.253 C 392.52 453.253 365.02 436.032 345.46 428.729 C 325.89 421.416 282.94 423.108 282.94 423.108 L 323.91 451.591 Z " fill-rule="evenodd" fill="rgb(87,18,166)"/><path d=" M 398.72 516.352 L 390.98 513.018 L 188.46 513.018 L 274.15 447.047 C 274.15 447.047 350.7 453.612 360.29 467.93 C 369.88 482.248 398.72 516.352 398.72 516.352 Z " fill-rule="evenodd" fill="rgb(87,18,166)"/><path d=" M 254.7 475.458 C 254.35 475.438 253.99 475.417 253.63 475.417 C 243.9 475.417 235.96 486.023 235.96 499.018 C 235.96 512.023 243.9 522.619 253.63 522.619 L 253.63 522.619 L 262.77 522.619 C 272.52 522.619 280.43 512.054 280.43 499.018 C 280.43 486.474 273.11 476.217 263.86 475.469 L 263.86 475.458 L 263.84 475.458 C 263.49 475.438 263.13 475.417 262.77 475.417 C 262.4 475.417 262.04 475.438 261.69 475.458 L 254.7 475.458 Z " fill-rule="evenodd" fill="rgb(87,18,166)"/><path d=" M 400.69 475.458 C 400.34 475.438 399.98 475.417 399.62 475.417 C 389.88 475.417 381.95 486.023 381.95 499.018 C 381.95 512.023 389.88 522.619 399.61 522.619 L 399.62 522.619 L 408.75 522.619 C 418.51 522.619 426.42 512.054 426.42 499.018 C 426.42 486.474 419.1 476.217 409.85 475.469 L 409.85 475.458 L 409.83 475.458 C 409.48 475.438 409.12 475.417 408.75 475.417 C 408.39 475.417 408.03 475.438 407.68 475.458 L 400.69 475.458 Z " fill-rule="evenodd" fill="rgb(87,18,166)"/><path d=" M 160.74 488.166 L 160.74 509.336 L 210.22 509.336 L 210.22 469.397 L 169.26 469.397 L 160.74 488.166 Z " fill-rule="evenodd" fill="rgb(87,18,166)"/><path d=" M 340.92 475.417 C 341.28 475.417 341.64 475.438 341.99 475.458 L 342.01 475.458 L 342.01 475.469 C 351.26 476.228 358.59 486.474 358.59 499.018 C 358.59 512.054 350.67 522.619 340.92 522.619 L 331.78 522.619 L 327.75 514.762 L 327.75 514.762 C 324.95 510.588 323.25 505.069 323.25 499.018 C 323.25 493.028 324.92 487.561 327.67 483.397 L 327.67 483.397 L 331.78 475.458 L 339.84 475.458 C 340.19 475.438 340.55 475.417 340.92 475.417 Z " fill-rule="evenodd" fill="rgb(87,18,166)"/><path d=" M 331.78 522.619 C 341.51 522.619 349.44 512.023 349.44 499.018 C 349.44 486.023 341.51 475.417 331.78 475.417 C 322.04 475.417 314.11 486.023 314.11 499.018 C 314.11 512.023 322.04 522.619 331.78 522.619 Z " fill-rule="evenodd" fill="rgb(125,33,232)"/><path d=" M 330.82 515.613 C 337.66 515.613 343.24 508.157 343.24 499.018 C 343.24 489.879 337.66 482.423 330.82 482.423 C 323.97 482.423 318.39 489.879 318.39 499.018 C 318.39 508.157 323.97 515.613 330.82 515.613 Z " fill-rule="evenodd" fill="rgb(227,224,255)"/><path d=" M 193.73 475.417 C 194.09 475.417 194.45 475.438 194.81 475.458 L 194.83 475.458 L 194.83 475.469 C 204.08 476.228 211.4 486.474 211.4 499.018 C 211.4 512.054 203.49 522.619 193.73 522.619 L 184.59 522.619 L 180.57 514.762 L 180.57 514.762 C 177.77 510.588 176.06 505.069 176.06 499.018 C 176.06 493.028 177.73 487.561 180.49 483.397 L 180.49 483.397 L 184.59 475.458 L 192.65 475.458 C 193.01 475.438 193.37 475.417 193.73 475.417 Z " fill-rule="evenodd" fill="rgb(87,18,166)"/><path d=" M 184.59 522.619 C 194.32 522.619 202.26 512.023 202.26 499.018 C 202.26 486.023 194.32 475.417 184.59 475.417 C 174.86 475.417 166.92 486.023 166.92 499.018 C 166.92 512.023 174.86 522.619 184.59 522.619 Z " fill-rule="evenodd" fill="rgb(125,33,232)"/><path d=" M 183.63 515.613 C 190.48 515.613 196.06 508.157 196.06 499.018 C 196.06 489.879 190.48 482.423 183.63 482.423 C 176.79 482.423 171.21 489.879 171.21 499.018 C 171.21 508.157 176.79 515.613 183.63 515.613 Z " fill-rule="evenodd" fill="rgb(227,224,255)"/><path d=" M 209.63 509.336 L 311.43 509.336 C 303.59 481.869 328.02 458.227 345.14 476.105 C 352.86 484.156 355.45 497.705 352.12 509.336 L 406.67 509.336 C 409.99 507.562 413.07 505.757 413.59 505.521 C 415.17 504.834 414.62 499.459 414.62 497.192 C 414.62 493.664 412.98 491.213 410.14 488.3 C 403.76 481.766 415.56 476.217 398.18 467.304 C 387.73 461.94 351.11 453.971 335.28 449.683 C 319.44 445.386 295.53 417.036 256.98 418.113 C 218.43 419.18 195.56 432.821 182.11 439.416 C 168.67 446.001 158.21 446.688 156.41 447.612 C 154.62 448.535 156.26 452.75 153.35 456.422 C 150.44 460.104 150.66 463.017 150.66 463.017 L 150.66 484.628 C 150.66 491.059 146.7 494.895 148.42 501.254 C 150.14 507.613 158.17 509.336 158.17 509.336 L 164.24 509.336 C 156.53 481.048 181.13 458.535 197.96 476.105 C 205.68 484.156 208.26 497.705 204.94 509.336 L 209.63 509.336 Z " fill-rule="evenodd" fill="rgb(176,107,255)"/><path d=" M 398.15 468.617 L 345.03 459.417 C 345.03 459.417 354.74 467.54 366.17 469.458 C 377.61 471.376 401.96 473.366 401.96 473.366 L 398.15 468.617 Z " fill-rule="evenodd" fill="rgb(255,255,255)"/><path d=" M 394.64 509.336 L 408.26 501.264 C 408.26 501.264 410.55 499.654 409.36 496.813 C 408.16 493.982 393.74 479.418 392.03 479.11 C 390.31 478.802 377.68 478.884 377.68 478.884 C 377.68 478.884 385.15 494.29 384.78 495.818 C 384.4 497.356 381.49 500.413 379.25 501.951 C 377.01 503.48 365.43 503.018 365.43 503.018 L 374.99 477.889 C 374.99 477.889 375.46 474.607 381.07 474.607 C 386.67 474.607 406 475.356 406 475.356 L 400.22 468.412 C 394.96 462.073 436.44 461.109 439.02 469.458 L 440.85 475.356 C 440.85 475.356 443.84 478.494 443.84 481.336 C 443.84 484.166 443.5 498.197 443.95 499.5 C 444.4 500.803 446.12 503.562 445.67 505.09 C 445.37 506.105 441.75 508.105 438.67 509.336 L 394.64 509.336 Z " fill-rule="evenodd" fill="rgb(153,61,255)"/><path d=" M 443.79 485.828 L 443.95 499.5 C 444.42 500.844 445.9 503.172 445.73 504.803 L 402.29 504.803 C 411.44 499.387 413.87 500.003 399.94 486.064 C 393.88 480.002 393.18 479.1 390.29 478.987 C 390.21 478.987 399.52 478.874 390.42 478.874 C 403.58 478.874 401.23 477.735 410.33 487.407 C 418.4 495.992 416.3 495.408 429.62 495.408 C 436.18 495.408 437.3 492.72 442.29 487.407 L 443.79 485.828 Z " fill-rule="evenodd" fill="rgb(87,18,166)"/><path d=" M 195.97 457.458 L 204.65 457.458 C 205.42 457.458 206.04 458.094 206.04 458.873 C 206.04 459.653 205.42 460.299 204.65 460.299 L 195.97 460.299 C 195.21 460.299 194.58 459.653 194.58 458.873 C 194.58 458.094 195.21 457.458 195.97 457.458 Z " fill-rule="evenodd" fill="rgb(87,18,166)"/><path d=" M 246.4 457.458 L 255.09 457.458 C 255.85 457.458 256.47 458.094 256.47 458.873 C 256.47 459.653 255.85 460.299 255.09 460.299 L 246.4 460.299 C 245.64 460.299 245.02 459.653 245.02 458.873 C 245.02 458.094 245.64 457.458 246.4 457.458 Z " fill-rule="evenodd" fill="rgb(87,18,166)"/><path d=" M 252.49 423.549 C 249.56 433.775 249.29 443.273 249.07 451.95 L 309.52 454.771 C 309.52 454.771 311.2 452.607 311.39 448.001 C 311.57 443.406 295.07 431.303 282.18 426.267 C 269.3 421.221 252.49 423.549 252.49 423.549 Z " fill-rule="evenodd" fill="rgb(87,18,166)"/><path d=" M 297.62 446.34 C 297.62 446.34 294.14 441.17 290.59 440.114 C 287.04 439.068 281.75 438.873 280.38 439.478 C 273.96 442.319 276.85 450.627 283.93 450.627 C 288.38 450.627 295.76 450.627 295.76 450.627 C 296.31 452.74 295.92 453.017 298.22 453.017 C 302.02 453.017 304.35 453.53 304.75 452.094 C 304.97 451.324 302.42 446.658 302.08 446.504 C 301.73 446.34 297.62 446.34 297.62 446.34 Z " fill-rule="evenodd" fill="rgb(176,107,255)"/><path d=" M 207.62 450.012 C 208.71 443.642 210.59 436.77 212.97 430.76 C 208.22 432.411 206.75 432.739 202.11 434.77 C 197.48 436.791 192.13 449.283 192.13 449.283 L 207.62 450.012 Z " fill-rule="evenodd" fill="rgb(87,18,166)"/><path d=" M 216.01 429.785 C 213.38 436.134 211.4 443.468 210.25 450.135 L 239.36 451.489 C 239.99 444.545 243.05 430.493 246.01 423.99 C 246.01 423.99 232.82 424.657 216.01 429.785 Z " fill-rule="evenodd" fill="rgb(87,18,166)"/><path d=" M 154.14 455.232 C 161.54 455.027 168.86 453.212 174.65 448.463 L 156.41 447.612 C 154.81 448.432 155.95 451.878 154.14 455.232 Z " fill-rule="evenodd" fill="rgb(87,18,166)"/><path d=" M 383.08 490.7 C 382.08 488.31 380.81 485.52 379.75 483.254 C 378.59 480.751 377.68 478.884 377.68 478.884 L 376.1 476.084 C 375.13 476.956 374.99 477.889 374.99 477.889 L 374.94 478.012 L 376.17 482.72 L 378.58 491.92 L 378.74 492.536 C 378.74 492.536 380.19 496.074 376.08 498.126 C 371.97 500.167 365.43 503.018 365.43 503.018 C 365.43 503.018 377.01 503.48 379.25 501.951 C 380.11 501.357 381.07 500.546 381.95 499.674 C 382.52 499.121 383.04 498.536 383.49 497.982 C 384.16 497.162 384.64 496.382 384.78 495.818 C 384.9 495.305 384.15 493.233 383.08 490.7 Z " fill-rule="evenodd" fill="rgb(87,18,166)"/><path d=" M 400.22 468.412 L 406 475.356 L 440.85 475.356 L 439.1 469.704 C 437.46 472.033 430.71 472.197 425.99 472.412 C 414.64 472.956 400.22 468.412 400.22 468.412 Z " fill-rule="evenodd" fill="rgb(87,18,166)"/><path d=" M 427.29 479.007 C 428.86 479.007 430.13 480.874 430.13 483.182 C 430.13 485.489 428.86 487.356 427.29 487.356 C 425.72 487.356 424.45 485.489 424.45 483.182 C 424.45 480.874 425.72 479.007 427.29 479.007 Z " fill-rule="evenodd" fill="rgb(87,18,166)"/></g></g></g></svg>