<?xml version="1.0" encoding="UTF-8" standalone="no"?><!-- Generator: Gravit.io --><svg xmlns="http://www.w3.org/2000/svg" xmlns:xlink="http://www.w3.org/1999/xlink" style="isolation:isolate" viewBox="0 0 600 580" width="600pt" height="580pt"><defs><clipPath id="_clipPath_brLBcBZUZnEQWu0qwp9oIsTDTFH8jREW"><rect width="600" height="580"/></clipPath></defs><g clip-path="url(#_clipPath_brLBcBZUZnEQWu0qwp9oIsTDTFH8jREW)"><g><path d=" M 226.931 523.86 C 165.44 523.86 115.284 473.975 115.284 412.814 C 115.284 351.653 165.44 301.772 226.931 301.772 C 288.426 301.772 338.579 351.653 338.579 412.814 C 338.579 473.975 288.426 523.86 226.931 523.86 Z " fill-rule="evenodd" fill="rgb(227,224,255)"/><path d=" M 288.316 432.943 C 169.156 432.943 71.973 336.287 71.973 217.775 C 71.973 99.264 169.156 2.608 288.316 2.608 C 407.471 2.608 504.654 99.264 504.654 217.775 C 504.654 336.287 407.471 432.943 288.316 432.943 Z " fill-rule="evenodd" fill="rgb(227,224,255)"/><path d=" M 501.3 541.654 C 410.396 541.654 336.255 467.915 336.255 377.501 C 336.255 287.091 410.396 213.351 501.3 213.351 C 538.254 213.351 572.44 225.54 600 246.077 L 600 508.929 C 572.44 529.466 538.254 541.654 501.3 541.654 Z " fill-rule="evenodd" fill="rgb(227,224,255)"/><path d=" M 477.258 350.881 C 381.277 350.881 302.99 273.019 302.99 177.557 C 302.99 82.093 381.277 4.232 477.258 4.232 C 525.056 4.232 568.462 23.545 600 54.72 L 600 300.391 C 568.462 331.57 525.056 350.881 477.258 350.881 Z " fill-rule="evenodd" fill="rgb(227,224,255)"/><path d=" M 339.564 531.993 L 347.783 536.71 L 356.003 541.431 L 356.003 531.993 L 356.003 522.551 L 347.783 527.272 L 339.564 531.993 Z " fill-rule="evenodd" fill="rgb(227,224,255)"/><path d=" M 483.1 485.146 C 488.132 485.146 488.132 492.742 483.1 492.742 C 478.075 492.742 478.075 485.146 483.1 485.146 Z  M 471.454 471.755 C 475.702 471.755 479.144 475.182 479.144 479.407 C 479.144 483.633 475.702 487.06 471.454 487.06 C 467.201 487.06 463.755 483.633 463.755 479.407 C 463.755 475.182 467.201 471.755 471.454 471.755 Z " fill-rule="evenodd" fill="rgb(255,255,255)"/><path d=" M 160.055 279.945 C 160.055 282.045 158.347 283.747 156.236 283.747 C 154.129 283.747 152.413 282.045 152.413 279.945 C 152.413 277.849 154.129 276.151 156.236 276.151 C 158.347 276.151 160.055 277.849 160.055 279.945 Z  M 173.519 268.362 L 173.519 268.362 C 173.519 272.587 170.077 276.015 165.824 276.015 C 161.572 276.015 158.13 272.587 158.13 268.362 C 158.13 264.133 161.572 260.706 165.824 260.706 C 170.077 260.706 173.519 264.133 173.519 268.362 Z " fill-rule="evenodd" fill="rgb(255,255,255)"/><path d=" M 501.817 78.635 L 510.036 83.354 L 518.256 88.073 L 518.256 78.635 L 518.256 69.194 L 510.036 73.914 L 501.817 78.635 Z " fill-rule="evenodd" fill="rgb(255,255,255)"/><path d=" M 96.593 387.265 L 99.05 378.148 L 101.507 369.031 L 92.341 371.475 L 83.171 373.915 L 89.884 380.592 L 96.593 387.265 Z " fill-rule="evenodd" fill="rgb(227,224,255)"/><path d=" M 215.677 558 C 211.843 558 208.713 554.887 208.713 551.07 C 208.713 547.253 211.843 544.143 215.677 544.143 C 219.514 544.143 222.645 547.253 222.645 551.07 C 222.645 554.887 219.514 558 215.677 558 Z " fill-rule="evenodd" fill="rgb(227,224,255)"/><path d=" M 600 126.601 L 519.613 126.601 C 507.389 126.601 508.131 140.601 510.725 147.97 C 513.319 155.339 531.838 198.815 531.838 198.815 C 531.838 198.815 532.766 202.866 534.348 208.475 L 600 208.475 L 600 126.601 Z " fill-rule="evenodd" fill="rgb(255,255,255)"/><path d=" M 410.286 195.962 L 394.361 195.962 L 415.862 110.077 C 423.975 113.171 430.707 115.92 435.461 118.075 C 470.198 133.815 471.876 173.307 464.273 186.719 C 456.669 200.128 410.286 195.962 410.286 195.962 Z  M 384.339 195.962 L 212.516 195.962 C 212.516 195.962 196.408 195.962 199.953 178.664 C 203.498 161.365 239.76 87.36 250.935 75.717 C 254.02 72.505 265.753 68.192 283.371 71.052 C 317.633 76.618 370.779 93.483 406.262 106.488 C 404.645 116.461 387.503 183.595 384.339 195.962 Z " fill-rule="evenodd" fill="rgb(255,255,255)"/><path d=" M 486.987 159.097 L 471.279 202.863 L 479.133 205.649 L 494.837 161.884 L 486.987 159.097 Z " fill-rule="evenodd" fill="rgb(207,199,255)"/><path d=" M 414.968 367.927 L 420.152 454.346 L 284.569 454.346 L 306.797 325.926 L 389.778 313.401 L 414.968 367.927 Z " fill-rule="evenodd" fill="rgb(207,199,255)"/><path d=" M 433.868 209.282 L 453.722 189.238 L 544.42 189.238 C 544.42 189.238 558.683 189.328 564.981 202.96 C 571.28 216.592 568.872 232.803 568.872 232.803 L 590.545 232.803 L 590.545 454.346 L 353.013 454.346 L 353.013 302.071 L 433.868 209.282 Z " fill-rule="evenodd" fill="rgb(207,199,255)"/><path d=" M 530.773 139.229 C 554.042 137.771 555.678 147.691 547.333 169.883 C 543.237 180.773 532.218 181.084 532.218 181.084 L 494.023 181.083 C 478.498 181.081 474.352 179.904 471.834 177.694 C 469.316 175.484 473.298 159.892 477.467 150.43 C 482.157 139.78 490.212 139.229 492.578 139.229 L 530.773 139.229 Z " fill-rule="evenodd" fill="rgb(207,199,255)"/><path d=" M 531.994 154.859 L 516.289 198.624 L 524.139 201.412 L 539.848 157.646 L 531.994 154.859 Z " fill-rule="evenodd" fill="rgb(207,199,255)"/><path d=" M 590.545 454.346 L 549.052 331.778 C 559.999 322.37 580.827 318.126 600 312.667 L 600 454.346 L 590.545 454.346 Z " fill-rule="evenodd" fill="rgb(207,199,255)"/><path d=" M 600 345.895 C 588.129 360.089 575.84 373.571 566.168 383.107 C 562.889 386.342 559.911 389.118 557.351 391.32 L 547.869 280.07 L 590.545 232.803 L 600 232.803 L 600 345.895 Z " fill-rule="evenodd" fill="rgb(207,199,255)"/><path d=" M 477.76 361.473 L 330.169 361.473 L 330.169 334.566 L 477.76 334.566 L 477.76 361.473 Z " fill-rule="evenodd" fill="rgb(207,199,255)"/><path d=" M 0 65.185 C 0 65.185 11.757 115.729 42.869 134.64 C 73.985 153.55 84.354 154.582 90.23 170.055 C 95.836 184.809 113.542 260.857 104.543 290.832 L 110.856 290.832 C 117.334 254.063 101.899 195.88 92.794 159.094 C 93.071 153.8 93.535 149.66 94.159 147.156 C 98.191 131.11 108.373 128.887 137.062 106.508 C 165.76 84.13 171.53 32.571 171.53 32.571 C 124.039 95.471 94.661 75.65 89.298 147.121 C 74.244 103.589 47.715 115.06 0 65.185 Z " fill-rule="evenodd" fill="rgb(207,199,255)"/><path d=" M 198.356 112.788 C 142.182 138.02 101.66 227.795 85.229 291.876 C 90.801 306.902 98.012 321.144 106.65 334.396 C 119.091 283.762 161.097 232.38 206.529 206.558 C 154.92 216.972 107.852 249.043 92.086 300.868 C 116.022 196.108 190.908 159.696 198.356 112.788 Z " fill-rule="evenodd" fill="rgb(207,199,255)"/><path d=" M 550.087 200.403 L 514.307 333.211 L 600 333.211 L 600 335.924 L 447.868 335.924 L 447.868 333.211 L 511.489 333.211 L 547.459 199.704 L 550.087 200.403 Z  M 542.697 144.619 L 534.728 174.208 L 532.1 173.508 L 540.068 143.918 L 542.697 144.619 Z  M 325.879 366.183 L 600 366.183 L 600 368.891 L 325.879 368.891 L 325.879 366.183 Z " fill="rgb(255,255,255)"/><path d=" M 185.275 80.267 C 185.275 80.267 185.275 63.465 196.172 53.709 C 207.073 43.952 225.056 46.663 225.056 46.663 C 225.056 46.663 222.333 76.473 185.275 80.267 Z " fill-rule="evenodd" fill="rgb(207,199,255)"/><path d=" M 50.655 178.609 C 50.655 178.609 50.297 170.805 42.093 164.775 C 33.893 158.745 25.689 158.389 25.689 158.389 C 25.689 158.389 26.758 178.963 50.655 178.609 Z " fill-rule="evenodd" fill="rgb(227,224,255)"/><path d=" M 160.758 310.367 L 160.762 310.356 C 155.068 300.032 144.034 293.03 131.361 293.03 C 126.96 293.03 122.761 293.874 118.912 295.406 C 114.755 305.377 110.674 318.02 106.65 334.396 C 112.332 343.111 118.631 351.396 125.481 359.188 C 126.249 360.066 127.029 360.932 127.809 361.795 C 119.81 377.085 115.284 394.441 115.284 412.814 C 115.284 427.484 118.167 441.507 123.404 454.346 L 237.421 454.346 C 237.421 454.346 235.732 444.995 240.563 443.221 L 270.527 432.22 L 272.733 431.411 L 272.733 426.682 C 272.733 426.682 273.01 424.931 274.338 424.931 L 275.665 424.931 L 275.665 420.637 L 275.665 398.008 L 275.665 332.156 L 241.913 363.83 C 240.59 363.391 239.342 362.952 238.171 362.506 L 230.602 370.034 L 220.393 388.687 C 210.215 388.543 207.066 383.913 200.448 380.724 C 185.625 373.586 170.518 366.497 163.116 358.106 C 163.116 358.106 166.353 349.168 171.427 350.034 L 205.225 355.803 L 207.606 351.706 C 207.606 351.706 208.724 350.329 209.873 350.991 L 213.999 353.359 L 219.416 344.034 C 219.416 344.034 221.644 340.198 225.159 334.206 C 229.286 327.17 235.189 317.161 241.343 306.898 C 242.115 305.608 242.894 304.314 243.674 303.021 C 252.491 288.385 261.44 273.915 266.145 267.431 L 266.198 267.36 C 258.531 252.694 243.115 242.68 225.349 242.68 C 199.938 242.68 179.334 263.168 179.334 288.441 C 179.334 292.954 179.992 297.316 181.217 301.432 L 181.232 301.436 C 180.631 301.39 180.023 301.367 179.407 301.367 C 171.845 301.367 165.102 304.886 160.758 310.367 Z " fill-rule="evenodd" fill="rgb(207,199,255)"/><path d=" M 174.215 429.61 C 174.215 429.61 173.857 421.81 165.657 415.776 C 157.453 409.746 149.249 409.391 149.249 409.391 C 149.249 409.391 150.318 429.966 174.215 429.61 Z " fill-rule="evenodd" fill="rgb(227,224,255)"/><path d=" M 565.171 107.178 C 565.171 107.178 565.529 99.374 573.733 93.342 C 581.937 87.313 590.138 86.958 590.138 86.958 C 590.138 86.958 589.069 107.531 565.171 107.178 Z " fill-rule="evenodd" fill="rgb(207,199,255)"/><path d=" M 93.265 41.676 L 85.042 36.957 L 76.823 32.236 L 85.042 27.516 L 93.265 22.796 L 93.265 32.236 L 93.265 41.676 Z " fill-rule="evenodd" fill="rgb(227,224,255)"/><path d=" M 595.048 24.424 C 595.048 24.424 594.614 14.997 584.706 7.713 C 574.798 0.429 564.886 0 564.886 0 C 564.886 0 566.179 24.853 595.048 24.424 Z " fill-rule="evenodd" fill="rgb(227,224,255)"/><path d=" M 200.862 280.38 L 266.145 267.431 L 273.969 296.465 L 338.362 296.465 L 307.113 454.346 L 191.836 454.346 L 200.862 280.38 Z " fill-rule="evenodd" fill="rgb(207,199,255)"/><path d=" M 275.665 398.008 L 275.665 431.543 L 299.125 437.614 L 310.186 396.552 L 275.665 398.008 Z " fill-rule="evenodd" fill="rgb(255,171,204)"/><path d=" M 230.929 345.646 L 219.416 344.034 L 210.302 359.733 L 225.463 375.148 L 246.546 354.172 L 230.929 345.646 Z " fill-rule="evenodd" fill="rgb(255,171,204)"/><path d=" M 434.822 226.422 C 434.822 226.422 399.625 213.076 391.538 215.451 C 383.452 217.826 355.793 245.582 349.62 257.619 C 343.443 269.652 343.691 278.25 343.691 278.25 L 433.339 309.936 C 433.339 309.936 456.061 267.197 455.566 257.127 C 455.072 247.057 434.822 226.422 434.822 226.422 Z " fill-rule="evenodd" fill="rgb(38,120,250)"/><path d=" M 354.424 232.179 L 351.819 234.729 L 346.581 246.978 L 344.851 260.244 L 356.805 268.998 L 374.487 231.997 L 354.424 232.179 Z " fill-rule="evenodd" fill="rgb(237,135,171)"/><path d=" M 340.328 277.237 L 361.339 270.015 L 330.751 213.286 C 330.751 213.286 329.215 210.611 325.582 209.973 C 321.954 209.334 287.11 203.219 287.11 203.219 C 287.11 203.219 285.193 202.87 284.592 204.137 C 283.995 205.402 283.691 206.047 283.691 206.047 C 283.691 206.047 282.668 207.687 284.101 210.161 C 285.535 212.634 298.684 235.281 298.684 235.281 L 302.556 260.305 L 340.328 277.237 Z " fill-rule="evenodd" fill="rgb(227,224,255)"/><path d=" M 332.919 217.303 L 330.751 213.286 C 330.751 213.286 329.215 210.611 325.582 209.973 L 322.76 209.476 L 314.735 217.458 L 323.749 226.422 L 332.919 217.303 Z " fill-rule="evenodd" fill="rgb(255,255,255)"/><path d=" M 340.328 277.237 L 356.06 271.831 L 326.678 217.338 C 326.678 217.338 325.141 214.663 321.509 214.026 L 283.345 207.327 C 283.299 208.037 283.432 209.008 284.101 210.161 C 285.535 212.634 298.684 235.281 298.684 235.281 L 302.556 260.305 L 340.328 277.237 Z " fill-rule="evenodd" fill="rgb(199,194,255)"/><path d=" M 456.099 179.213 L 456.529 174.479 L 450.812 171.196 C 450.812 171.196 431.437 183.084 428.406 182.655 C 425.378 182.225 422.64 181.538 422.64 181.538 L 417.589 182.225 C 417.589 182.225 413.694 188.68 416.721 192.554 C 419.753 196.426 424.077 196.857 429.707 195.997 C 435.328 195.136 444.415 189.972 456.099 179.213 Z " fill-rule="evenodd" fill="rgb(237,135,171)"/><path d=" M 294.702 254.524 C 294.702 254.524 308.117 257.967 311.578 259.257 C 315.043 260.547 316.34 260.547 316.34 260.547 C 316.34 260.547 310.714 246.777 309.417 245.915 C 308.117 245.056 303.359 243.335 303.359 243.335 L 298.684 235.281 C 298.684 235.281 293.838 237.309 292.541 240.751 C 291.241 244.193 294.702 254.524 294.702 254.524 Z " fill-rule="evenodd" fill="rgb(255,171,204)"/><path d=" M 359.608 314.77 L 384.061 334.566 L 330.169 334.566 L 330.169 334.592 C 329.199 334.509 328.598 334.494 328.454 334.566 C 327.298 335.145 317.591 373.567 311.312 398.874 C 308.219 411.346 305.956 420.637 305.956 420.637 C 296.478 425.793 284.28 423.83 275.665 420.637 L 275.665 299.279 C 275.665 299.279 303.359 282.926 312.011 286.368 C 320.668 289.811 359.608 314.77 359.608 314.77 Z " fill-rule="evenodd" fill="rgb(77,18,143)"/><path d=" M 405.699 132.599 C 405.699 132.599 396.593 132.389 390.242 124.595 C 383.89 116.804 385.795 109.433 391.938 104.378 C 398.077 99.324 408.453 103.325 414.382 102.693 C 420.312 102.062 437.675 94.9 449.53 105.22 C 462.428 116.442 463.04 150.73 450.261 164.464 C 437.481 178.199 405.699 132.599 405.699 132.599 Z " fill-rule="evenodd" fill="rgb(87,18,166)"/><path d=" M 435.872 152.101 L 452.071 143.203 L 447.959 148.494 L 455.422 176.191 L 425.781 193.21 L 414.036 149.604 L 435.872 152.101 Z " fill-rule="evenodd" fill="rgb(237,135,171)"/><path d=" M 444.008 136.653 C 454.798 118.137 462.835 151.961 447.054 152.595 C 447.054 152.595 446.849 164.704 444.62 167.326 C 442.387 169.95 431.228 178.022 423.111 179.433 C 414.995 180.845 410.533 177.011 407.692 166.115 C 407.563 165.615 407.429 165.072 407.293 164.49 L 407.293 164.485 C 406.566 161.333 405.79 157.071 405.037 152.49 L 405.037 152.467 C 404.451 149.008 401.002 142.94 400.591 140.891 C 400.306 139.488 400.602 132.078 400.815 127.531 C 403.394 127.542 406.292 127.327 409.453 126.746 C 422.849 124.287 429.501 120.659 429.501 120.659 C 429.501 120.659 432.038 127.975 433.461 130.801 C 434.879 133.626 437.112 136.855 437.519 140.084 C 437.922 143.313 438.732 147.147 438.732 147.147 L 444.415 143.11 L 444.008 136.653 Z " fill-rule="evenodd" fill="rgb(255,171,204)"/><path d=" M 414.063 169.402 C 414.089 169.406 422.659 171.59 426.534 161.726 L 424.058 160.762 C 421.031 168.445 414.683 166.824 414.664 166.82 L 414.063 169.402 Z " fill-rule="evenodd" fill="rgb(237,135,171)"/><path d=" M 470.377 266.573 L 485.089 266.573 L 505.856 230.424 C 509.724 223.694 509.317 212.349 498.934 200.3 C 488.55 188.251 456.529 174.479 456.529 174.479 C 456.529 174.479 448.743 185.669 436.629 188.251 C 424.511 190.833 417.589 182.225 417.589 182.225 C 417.589 182.225 388.165 186.529 375.184 197.718 C 362.206 208.907 351.819 234.729 351.819 234.729 L 411.533 248.498 L 443.551 275.179 L 470.377 266.573 Z " fill-rule="evenodd" fill="rgb(38,120,250)"/><path d=" M 462.013 208.394 C 461.99 208.453 453.22 229.092 449.861 239.488 L 452.394 240.297 C 455.722 229.993 464.44 209.48 464.467 209.422 L 462.013 208.394 Z " fill-rule="evenodd" fill="rgb(255,255,255)"/><path d=" M 438.359 294.116 C 438.359 294.116 299.897 251.078 295.573 251.078 C 291.241 251.078 277.396 251.941 266.145 267.431 C 261.026 274.49 250.878 291.002 241.343 306.898 C 229.94 325.911 219.416 344.034 219.416 344.034 C 222.47 353.824 227.129 358.95 241.913 363.83 L 303.359 306.164 C 303.359 306.164 330.679 320.774 356.219 333.821 L 357.687 334.566 L 441.026 334.566 C 450.306 318.496 456.529 294.974 456.529 294.974 L 438.359 294.116 Z " fill-rule="evenodd" fill="rgb(87,18,166)"/><path d=" M 375.355 245.487 L 362.807 245.487 L 358.794 212.349 L 355.017 212.349 L 355.017 208.907 L 359.106 208.907 L 360.643 204.604 C 370.448 204.604 380.257 204.604 390.063 204.604 L 391.603 208.907 L 395.692 208.907 L 395.692 212.349 L 391.915 212.349 L 387.899 245.487 L 375.355 245.487 Z " fill-rule="evenodd" fill="rgb(255,255,255)"/><path d=" M 373.936 236.677 C 368.721 236.677 364.469 231.941 364.469 226.138 C 364.469 220.328 368.721 215.592 373.936 215.592 C 379.151 215.592 383.407 220.328 383.407 226.138 C 383.407 231.941 379.151 236.677 373.936 236.677 Z " fill-rule="evenodd" fill="rgb(120,227,204)"/><path d=" M 392.683 254.524 C 395.049 255.58 439.223 308.744 447.876 310.469 C 456.529 312.186 460.857 307.885 463.455 304.443 C 466.049 301.001 485.089 266.573 485.089 266.573 C 485.089 266.573 479.034 257.104 471.241 251.941 C 463.455 246.777 450.474 243.335 450.474 243.335 L 443.118 258.398 L 408.932 238.167 C 408.932 238.167 405.311 230.639 400.735 226.463 C 396.164 222.283 390.675 222.597 390.675 222.597 L 390.124 227.144 C 390.124 227.144 376.051 227.844 369.992 226.981 C 363.937 226.119 360.167 223.717 360.167 223.717 C 357.668 226.346 357.242 228.873 357.95 231.339 C 358.57 233.639 358.821 233.057 359.608 237.309 C 362.145 250.991 370.243 249.781 384.209 253.079 C 387.963 253.964 390.318 253.465 392.683 254.524 Z " fill-rule="evenodd" fill="rgb(255,171,204)"/><path d=" M 442.775 258.848 L 456.095 266.732 L 457.453 264.451 L 444.129 256.567 L 442.775 258.848 Z " fill-rule="evenodd" fill="rgb(237,135,171)"/><path d=" M 396.494 227.004 C 396.487 227.004 394.798 226.323 390.337 225.71 L 390.116 227.348 C 394.357 227.931 395.852 228.532 395.855 228.536 L 396.494 227.004 Z " fill-rule="evenodd" fill="rgb(237,135,171)"/><path d=" M 387.556 212.156 L 359.525 212.156 L 359.525 213.485 L 387.556 213.485 L 387.556 212.156 Z " fill-rule="evenodd" fill="rgb(227,224,255)"/><path d=" M 309.513 226.959 C 306.919 226.959 306.032 229.051 307.527 231.627 C 309.022 234.207 312.339 236.295 314.929 236.295 C 317.523 236.295 318.409 234.207 316.91 231.627 C 315.416 229.051 312.103 226.959 309.513 226.959 Z " fill-rule="evenodd" fill="rgb(227,227,250)"/><path d=" M 300.943 239.174 L 303.359 243.335 L 299.722 241.98 L 295.782 240.516 L 299.467 240.339 C 299.467 240.339 300.034 239.858 300.943 239.174 Z " fill-rule="evenodd" fill="rgb(237,135,171)"/><path d=" M 337.575 225.937 L 347.616 244.56 L 349.628 248.298 L 345.931 251.978 L 345.554 252.353 L 333.501 229.993 L 337.575 225.937 Z " fill-rule="evenodd" fill="rgb(255,255,255)"/><path d=" M 302.449 431.543 L 302.449 454.346 L 237.421 454.346 C 237.421 454.346 235.732 444.995 240.563 443.221 C 251.038 439.377 272.733 431.411 272.733 431.411 L 272.733 426.682 C 272.733 426.682 273.01 424.931 274.338 424.931 C 275.665 424.931 279.864 424.931 279.864 424.931 C 279.864 424.931 281.777 424.9 281.777 426.466 C 281.777 428.033 281.777 431.543 281.777 431.543 C 287.521 434.97 294.732 434.013 302.449 431.543 Z " fill-rule="evenodd" fill="rgb(77,18,143)"/><path d=" M 230.602 370.034 L 220.393 388.687 C 210.215 388.543 207.066 383.913 200.448 380.724 C 185.625 373.586 170.518 366.497 163.116 358.106 C 163.116 358.106 166.353 349.168 171.427 350.034 C 182.427 351.91 205.225 355.803 205.225 355.803 L 207.606 351.706 C 207.606 351.706 208.724 350.329 209.873 350.991 C 211.021 351.649 214.661 353.737 214.661 353.737 C 214.661 353.737 216.331 354.664 215.544 356.018 C 214.756 357.376 212.995 360.414 212.995 360.414 C 217.019 365.177 221.793 368.555 230.602 370.034 Z " fill-rule="evenodd" fill="rgb(77,18,143)"/></g></g></svg>