<?xml version="1.0" encoding="UTF-8" standalone="no"?><!-- Generator: Gravit.io --><svg xmlns="http://www.w3.org/2000/svg" xmlns:xlink="http://www.w3.org/1999/xlink" style="isolation:isolate" viewBox="0 0 620 600" width="620pt" height="600pt"><defs><clipPath id="_clipPath_Fsbt4f1o2DXidE71Ei7ACg5dINcXodRv"><rect width="620" height="600"/></clipPath></defs><g clip-path="url(#_clipPath_Fsbt4f1o2DXidE71Ei7ACg5dINcXodRv)"><g><path d=" M 406.976 398.031 C 516.609 398.031 606 308.641 606 199.007 C 606 89.408 516.609 0 406.976 0 C 297.359 0 207.969 89.408 207.969 199.007 C 207.969 308.641 297.359 398.031 406.976 398.031 Z " fill-rule="evenodd" fill="rgb(227,224,255)"/><path d=" M 196.801 555.377 C 303.029 555.377 389.654 468.752 389.654 362.541 C 389.654 256.33 303.029 169.706 196.801 169.706 C 90.591 169.706 3.966 256.33 3.966 362.541 C 3.966 468.752 90.591 555.377 196.801 555.377 Z " fill-rule="evenodd" fill="rgb(227,224,255)"/><path d=" M 458.698 581.048 C 539.808 581.048 606 514.856 606 433.729 C 606 352.601 539.808 286.427 458.698 286.427 C 377.553 286.427 311.379 352.601 311.379 433.729 C 311.379 514.856 377.553 581.048 458.698 581.048 Z " fill-rule="evenodd" fill="rgb(227,224,255)"/><path d=" M 316.098 549.015 C 319.971 549.015 323.151 545.852 323.151 541.979 C 323.151 538.107 319.971 534.944 316.098 534.944 C 312.226 534.944 309.063 538.107 309.063 541.979 C 309.063 545.852 312.226 549.015 316.098 549.015 Z " fill-rule="evenodd" fill="rgb(227,224,255)"/><path d=" M 90.487 551.02 L 90.487 541.426 L 90.487 531.832 L 82.172 536.638 L 73.874 541.426 L 82.172 546.232 L 90.487 551.02 Z " fill-rule="evenodd" fill="rgb(227,224,255)"/><path d=" M 364.415 90.082 L 364.415 80.488 L 364.415 70.911 L 356.118 75.699 L 347.82 80.488 L 356.118 85.294 L 364.415 90.082 Z " fill-rule="evenodd" fill="rgb(255,255,255)"/><path d=" M 42.775 155.755 C 46.647 155.755 49.811 152.592 49.811 148.719 C 49.811 144.83 46.647 141.666 42.775 141.666 C 38.903 141.666 35.739 144.83 35.739 148.719 C 35.739 152.592 38.903 155.755 42.775 155.755 Z " fill-rule="evenodd" fill="rgb(227,224,255)"/><path d=" M 145.096 109.426 L 145.096 99.832 L 145.096 90.255 L 136.798 95.043 L 128.483 99.832 L 136.798 104.638 L 145.096 109.426 Z " fill-rule="evenodd" fill="rgb(227,224,255)"/><path d=" M 394.737 249.035 L 394.737 239.441 L 394.737 229.847 L 386.439 234.653 L 378.124 239.441 L 386.439 244.23 L 394.737 249.035 Z " fill-rule="evenodd" fill="rgb(255,255,255)"/><path d=" M 410.243 339.567 C 410.243 339.567 403.069 319.998 391.815 317.146 C 380.579 314.293 377.121 320.638 369.152 313.153 C 361.2 305.685 360.197 300.464 349.237 301.709 C 338.278 302.953 336.048 299.963 331.311 288.501 C 326.574 277.057 313.626 263.349 299.417 265.838 C 285.224 268.328 280.003 263.349 276.771 257.385 C 273.538 251.404 264.255 234.67 250.391 235.673 C 236.509 236.675 231.686 241.187 226.708 252.389 C 216.007 276.504 196.663 243.711 178.149 296.73 C 159.635 349.732 111.542 288.622 111.542 288.622 L 83.088 356.958 L 413.234 356.958 L 410.243 339.567 Z " fill-rule="evenodd" fill="rgb(207,199,255)"/><path d=" M 244.513 207.737 L 244.513 113.661 L 304.983 113.661 L 304.983 231.662 L 263.529 207.737 L 244.513 207.737 Z  M 234.712 207.737 L 200.259 207.737 L 200.259 184.417 L 234.712 184.417 L 234.712 207.737 Z  M 317.429 238.853 L 317.429 163.845 L 358.192 163.845 L 358.192 241.844 L 322.598 241.844 L 317.429 238.853 Z " fill-rule="evenodd" fill="rgb(207,199,255)"/><path d=" M 21.996 360.951 C 19.783 360.951 18.003 359.153 18.003 356.958 C 18.003 354.762 19.783 352.982 21.996 352.982 L 423.485 352.982 C 425.697 352.982 427.478 354.762 427.478 356.958 C 427.478 359.153 425.697 360.951 423.485 360.951 L 21.996 360.951 Z " fill-rule="evenodd" fill="rgb(207,199,255)"/><path d=" M 157.681 233.978 L 156.16 224.989 L 214.762 224.989 C 214.762 224.989 239.967 225.802 260.815 232.976 C 281.68 240.15 329.409 267.359 329.409 267.359 C 329.409 267.359 347.82 271.076 366.507 278.25 C 385.194 285.424 389.084 290.247 389.084 290.247 L 366.006 317.059 C 366.006 317.059 230.476 301.691 216.785 289.348 C 203.111 277.006 157.681 233.978 157.681 233.978 Z " fill-rule="evenodd" fill="rgb(153,61,255)"/><path d=" M 235.783 268.535 L 327.75 270.696 C 327.75 270.696 290.894 248.188 264.67 238.646 C 238.446 229.104 180.88 231.316 180.88 231.316 L 235.783 268.535 Z " fill-rule="evenodd" fill="rgb(87,18,166)"/><path d=" M 336.065 353.154 L 325.675 348.798 L 54.253 348.798 L 169.108 262.588 C 169.108 262.588 271.688 271.18 284.55 289.884 C 297.394 308.589 336.065 353.154 336.065 353.154 Z " fill-rule="evenodd" fill="rgb(87,18,166)"/><path d=" M 143.022 299.721 C 142.555 299.686 142.071 299.669 141.587 299.669 C 128.535 299.669 117.904 313.516 117.904 330.509 C 117.904 347.502 128.535 361.348 141.587 361.348 L 153.843 361.348 C 166.93 361.348 177.526 347.536 177.526 330.509 C 177.526 314.121 167.69 300.723 155.313 299.738 L 155.313 299.721 L 155.278 299.721 C 154.794 299.686 154.327 299.669 153.843 299.669 C 153.359 299.669 152.858 299.686 152.391 299.721 L 143.022 299.721 Z " fill-rule="evenodd" fill="rgb(87,18,166)"/><path d=" M 338.71 299.721 C 338.226 299.686 337.742 299.669 337.258 299.669 C 324.223 299.669 313.575 313.516 313.575 330.509 C 313.575 347.502 324.223 361.348 337.258 361.348 L 349.497 361.348 C 362.583 361.348 373.197 347.536 373.197 330.509 C 373.197 314.121 363.378 300.723 350.966 299.738 L 350.966 299.721 L 350.949 299.721 C 350.465 299.686 349.981 299.669 349.497 299.669 C 349.03 299.669 348.546 299.686 348.062 299.721 L 338.71 299.721 Z " fill-rule="evenodd" fill="rgb(87,18,166)"/><path d=" M 17.104 316.333 L 17.104 343.992 L 83.399 343.992 L 83.399 291.803 L 28.513 291.803 L 17.104 316.333 Z " fill-rule="evenodd" fill="rgb(87,18,166)"/><path d=" M 258.585 299.669 C 259.069 299.669 259.553 299.686 260.02 299.721 L 260.054 299.721 L 260.054 299.738 C 272.449 300.723 282.268 314.121 282.268 330.509 C 282.268 347.536 271.654 361.348 258.585 361.348 L 246.328 361.348 L 240.935 351.08 L 240.952 351.08 C 237.184 345.617 234.902 338.409 234.902 330.509 C 234.902 322.678 237.132 315.538 240.831 310.093 L 246.328 299.721 L 257.133 299.721 C 257.617 299.686 258.101 299.669 258.585 299.669 Z " fill-rule="evenodd" fill="rgb(87,18,166)"/><path d=" M 246.328 361.348 C 259.38 361.348 270.011 347.502 270.011 330.509 C 270.011 313.516 259.38 299.669 246.328 299.669 C 233.294 299.669 222.645 313.516 222.645 330.509 C 222.645 347.502 233.294 361.348 246.328 361.348 Z " fill-rule="evenodd" fill="rgb(125,33,232)"/><path d=" M 245.049 352.204 C 254.229 352.204 261.696 342.454 261.696 330.509 C 261.696 318.563 254.229 308.813 245.049 308.813 C 235.87 308.813 228.402 318.563 228.402 330.509 C 228.402 342.454 235.87 352.204 245.049 352.204 Z " fill-rule="evenodd" fill="rgb(227,224,255)"/><path d=" M 61.307 299.669 C 61.791 299.669 62.275 299.686 62.759 299.721 L 62.776 299.721 L 62.776 299.738 C 75.188 300.723 84.99 314.121 84.99 330.509 C 84.99 347.536 74.393 361.348 61.307 361.348 L 49.067 361.348 L 43.674 351.08 C 39.923 345.617 37.623 338.409 37.623 330.509 C 37.623 322.678 39.871 315.538 43.553 310.093 L 49.067 299.721 L 59.872 299.721 C 60.356 299.686 60.822 299.669 61.307 299.669 Z " fill-rule="evenodd" fill="rgb(87,18,166)"/><path d=" M 49.067 361.348 C 62.119 361.348 72.733 347.502 72.733 330.509 C 72.733 313.516 62.119 299.669 49.067 299.669 C 36.016 299.669 25.384 313.516 25.384 330.509 C 25.384 347.502 36.016 361.348 49.067 361.348 Z " fill-rule="evenodd" fill="rgb(125,33,232)"/><path d=" M 47.771 352.204 C 56.95 352.204 64.435 342.454 64.435 330.509 C 64.435 318.563 56.95 308.813 47.771 308.813 C 38.592 308.813 31.124 318.563 31.124 330.509 C 31.124 342.454 38.592 352.204 47.771 352.204 Z " fill-rule="evenodd" fill="rgb(227,224,255)"/><path d=" M 82.621 343.992 L 219.067 343.992 C 208.539 308.105 241.298 277.196 264.255 300.55 C 274.593 311.078 278.05 328.797 273.607 343.992 L 346.714 343.992 C 351.156 341.676 355.288 339.308 355.997 339.014 C 358.106 338.098 357.362 331.079 357.362 328.123 C 357.362 323.507 355.167 320.309 351.346 316.506 C 342.807 307.949 358.607 300.706 335.339 289.072 C 321.319 282.053 272.241 271.647 251.013 266.028 C 229.785 260.427 197.752 223.382 146.082 224.782 C 94.394 226.182 63.761 244.005 45.731 252.614 C 27.718 261.223 13.698 262.122 11.295 263.332 C 8.893 264.524 11.088 270.039 7.198 274.845 C 3.292 279.65 3.586 283.454 3.586 283.454 L 3.586 311.7 C 3.586 320.119 -1.722 325.115 0.578 333.43 C 2.877 341.745 13.647 343.992 13.647 343.992 L 21.789 343.992 C 11.451 307.033 44.417 277.611 66.977 300.55 C 77.332 311.078 80.772 328.797 76.346 343.992 L 82.621 343.992 Z " fill-rule="evenodd" fill="rgb(176,107,255)"/><path d=" M 335.287 290.783 L 264.099 278.752 C 264.099 278.752 277.116 289.383 292.433 291.872 C 307.766 294.379 340.404 296.989 340.404 296.989 L 335.287 290.783 Z " fill-rule="evenodd" fill="rgb(255,255,255)"/><path d=" M 330.585 343.992 L 348.84 333.447 C 348.84 333.447 351.917 331.338 350.326 327.622 C 348.719 323.922 329.392 304.889 327.093 304.492 C 324.776 304.094 307.853 304.198 307.853 304.198 C 307.853 304.198 317.862 324.32 317.378 326.325 C 316.876 328.33 312.969 332.341 309.962 334.346 C 306.954 336.334 291.43 335.747 291.43 335.747 L 304.257 302.901 C 304.257 302.901 304.879 298.597 312.399 298.597 C 319.902 298.597 345.797 299.582 345.797 299.582 L 338.07 290.507 C 331.017 282.226 386.594 280.964 390.069 291.872 L 392.524 299.582 C 392.524 299.582 396.534 303.697 396.534 307.396 C 396.534 311.095 396.085 329.437 396.673 331.131 C 397.278 332.842 399.577 336.438 398.972 338.443 C 398.592 339.774 393.734 342.385 389.602 343.992 L 330.585 343.992 Z " fill-rule="evenodd" fill="rgb(153,61,255)"/><path d=" M 396.448 313.274 L 396.673 331.131 C 397.312 332.894 399.283 335.937 399.058 338.063 L 340.836 338.063 C 353.11 330.975 356.36 331.788 337.69 313.585 C 329.565 305.65 328.631 304.474 324.759 304.336 C 324.655 304.336 337.119 304.181 324.932 304.181 C 342.582 304.181 339.418 302.694 351.623 315.331 C 362.445 326.55 359.61 325.789 377.467 325.789 C 386.266 325.789 387.77 322.28 394.46 315.331 L 396.448 313.274 Z " fill-rule="evenodd" fill="rgb(87,18,166)"/><path d=" M 64.314 276.193 L 75.966 276.193 C 76.968 276.193 77.798 277.023 77.798 278.043 L 77.798 278.06 C 77.798 279.08 76.968 279.91 75.966 279.91 L 64.314 279.91 C 63.277 279.91 62.465 279.08 62.465 278.06 L 62.465 278.043 C 62.465 277.023 63.277 276.193 64.314 276.193 Z " fill-rule="evenodd" fill="rgb(87,18,166)"/><path d=" M 131.906 276.193 L 143.54 276.193 C 144.578 276.193 145.407 277.023 145.407 278.043 L 145.407 278.06 C 145.407 279.08 144.578 279.91 143.54 279.91 L 131.906 279.91 C 130.886 279.91 130.039 279.08 130.039 278.06 L 130.039 278.043 C 130.039 277.023 130.886 276.193 131.906 276.193 Z " fill-rule="evenodd" fill="rgb(87,18,166)"/><path d=" M 140.066 231.887 C 136.142 245.249 135.779 257.661 135.485 269.002 L 216.491 272.701 C 216.491 272.701 218.756 269.849 218.998 263.833 C 219.257 257.834 197.13 242.017 179.86 235.431 C 162.573 228.844 140.066 231.887 140.066 231.887 Z " fill-rule="evenodd" fill="rgb(87,18,166)"/><path d=" M 200.553 261.672 C 200.553 261.672 195.885 254.913 191.131 253.547 C 186.36 252.164 179.272 251.905 177.44 252.7 C 168.831 256.417 172.703 267.273 182.194 267.273 C 188.158 267.273 198.046 267.273 198.046 267.273 C 198.789 270.022 198.288 270.402 201.365 270.402 C 206.447 270.402 209.576 271.059 210.112 269.192 C 210.406 268.189 206.983 262.087 206.517 261.88 C 206.067 261.672 200.553 261.672 200.553 261.672 Z " fill-rule="evenodd" fill="rgb(176,107,255)"/><path d=" M 79.925 266.461 C 81.394 258.146 83.901 249.174 87.099 241.308 C 80.72 243.469 78.749 243.901 72.543 246.546 C 66.32 249.191 59.163 265.51 59.163 265.51 L 79.925 266.461 Z " fill-rule="evenodd" fill="rgb(87,18,166)"/><path d=" M 91.178 240.046 C 87.652 248.327 84.99 257.921 83.434 266.616 L 122.468 268.397 C 123.315 259.321 127.412 240.98 131.388 232.474 C 131.388 232.474 113.703 233.339 91.178 240.046 Z " fill-rule="evenodd" fill="rgb(87,18,166)"/><path d=" M 8.253 273.289 C 18.176 273.012 27.977 270.644 35.722 264.438 L 11.295 263.332 C 9.152 264.403 10.673 268.915 8.253 273.289 Z " fill-rule="evenodd" fill="rgb(87,18,166)"/><path d=" M 315.096 319.635 C 313.765 316.523 312.053 312.876 310.636 309.903 C 309.08 306.635 307.853 304.198 307.853 304.198 L 305.744 300.533 C 304.43 301.674 304.257 302.901 304.257 302.901 L 304.188 303.057 L 305.83 309.211 L 309.063 321.243 L 309.27 322.038 C 309.27 322.038 311.223 326.671 305.709 329.333 C 300.212 332.013 291.43 335.747 291.43 335.747 C 291.43 335.747 306.954 336.334 309.962 334.346 C 311.102 333.568 312.399 332.497 313.592 331.356 C 314.335 330.63 315.044 329.886 315.649 329.16 C 316.531 328.071 317.187 327.068 317.378 326.325 C 317.533 325.651 316.531 322.954 315.096 319.635 Z " fill-rule="evenodd" fill="rgb(87,18,166)"/><path d=" M 338.07 290.507 L 345.797 299.582 L 392.524 299.582 L 390.173 292.201 C 387.977 295.243 378.936 295.451 372.609 295.745 C 357.38 296.436 338.07 290.507 338.07 290.507 Z " fill-rule="evenodd" fill="rgb(87,18,166)"/><path d=" M 374.355 304.371 C 376.447 304.371 378.141 306.808 378.141 309.816 C 378.141 312.824 376.447 315.279 374.355 315.279 C 372.246 315.279 370.535 312.824 370.535 309.816 C 370.535 306.808 372.246 304.371 374.355 304.371 Z " fill-rule="evenodd" fill="rgb(87,18,166)"/><path d=" M 86.165 211.609 L 77.867 206.803 L 69.552 202.015 L 69.552 211.609 L 69.552 221.186 L 77.867 216.398 L 86.165 211.609 Z " fill-rule="evenodd" fill="rgb(227,227,250)"/><path d=" M 123.574 298.614 L 123.574 289.037 L 123.574 279.443 L 115.276 284.231 L 106.961 289.037 L 115.276 293.826 L 123.574 298.614 Z " fill-rule="evenodd" fill="rgb(255,255,255)"/><path d=" M 106.201 189.707 L 103.054 191.954 C 103.054 191.954 101.844 185.955 100.271 181.08 C 98.698 176.188 98.785 170.605 99.735 168.599 C 100.703 166.594 102.622 166.438 102.622 166.438 C 102.622 166.438 104.887 162.151 110.038 161.892 C 115.173 161.633 121.361 162.065 124.94 160.665 C 128.518 159.282 132.096 162.946 130.005 168.599 C 127.913 174.269 119.978 173.405 119.978 173.405 C 119.978 173.405 118.059 186.837 106.201 189.707 Z " fill-rule="evenodd" fill="rgb(87,18,166)"/><path d=" M 120.791 199.474 L 117.091 196.086 L 114.827 195.066 L 116.832 188.963 L 108.154 182.947 L 106.062 183.034 L 102.519 193.562 L 100.064 193.959 L 99.562 199.042 C 99.562 199.042 117.61 206.579 120.151 205.576 C 122.675 204.573 120.791 199.474 120.791 199.474 Z " fill-rule="evenodd" fill="rgb(237,135,171)"/><path d=" M 136.505 391.151 L 125.821 392.897 L 126.115 404.756 L 141.898 406.502 L 143.886 393.9 L 136.505 391.151 Z " fill-rule="evenodd" fill="rgb(255,171,204)"/><path d=" M 139.53 404.756 L 139.409 404.756 L 125.164 404.756 L 124.317 414.523 L 158.753 414.523 C 158.753 414.523 157.716 409.406 155.209 407.729 C 153.377 406.485 146.462 405.949 143.056 404.721 L 143.731 401.281 L 142.503 401.281 C 140.273 401.281 139.668 404.116 139.53 404.756 Z " fill-rule="evenodd" fill="rgb(87,18,166)"/><path d=" M 88.637 391.151 L 77.798 392.897 L 77.228 404.756 L 93.339 404.756 L 96.762 389.751 L 88.637 391.151 Z " fill-rule="evenodd" fill="rgb(255,171,204)"/><path d=" M 73.77 274.776 C 73.77 274.776 79.233 324.769 78.939 331.943 C 78.663 339.117 76.156 357.597 76.139 373.207 C 76.121 381.228 76 390.944 75.879 398.533 L 96.226 398.533 C 101.101 376.44 110.177 334.813 110.522 329.886 C 110.955 323.144 112.459 307.361 112.459 307.361 C 112.459 307.361 116.486 325.444 117.282 328.797 C 118.094 332.134 117.161 342.281 118.146 346.516 C 119.028 350.25 123.055 381.643 125.009 398.533 L 144.37 398.533 C 144.837 376.077 146.998 328.33 146.479 326.394 C 145.909 324.285 136.418 274.482 136.418 274.482 L 73.77 274.776 Z " fill-rule="evenodd" fill="rgb(87,18,166)"/><path d=" M 90.884 403.788 L 90.66 404.756 L 76.26 404.756 L 74.704 414.523 L 109.139 414.523 C 109.139 414.523 108.465 409.406 106.097 407.729 C 104.368 406.485 97.488 405.949 94.186 404.721 L 95.137 401.177 L 93.633 401.177 C 91.991 401.177 91.213 402.716 90.884 403.788 Z " fill-rule="evenodd" fill="rgb(87,18,166)"/><path d=" M 108.154 177.364 C 108.154 177.364 107.29 175.013 105.613 175.099 C 103.971 175.203 102.57 178.073 103.279 180.856 C 103.971 183.639 105.613 184.521 106.322 184.521 C 107.03 184.521 107.549 184.261 107.549 184.261 C 107.549 184.261 107.895 188.618 109.9 190.796 C 111.905 192.974 117.403 194.893 119.754 194.201 C 122.105 193.51 122.468 187.667 122.9 183.743 C 123.332 179.819 122.727 170.034 122.727 170.034 L 117.057 170.311 C 117.057 170.311 116.435 173.44 115.207 174.408 C 113.997 175.376 112.96 175.445 112.338 176.932 C 111.732 178.418 111.214 182.861 111.214 182.861 L 108.586 180.942 L 108.154 177.364 Z " fill-rule="evenodd" fill="rgb(255,171,204)"/><path d=" M 186.913 149.515 C 187.034 151.606 187.38 154.234 186.792 156.222 L 186.775 156.291 L 185.288 160.716 L 185.288 160.734 L 185.288 160.751 C 184.908 161.598 174.069 185.61 171.061 189.724 C 168.019 193.925 148.951 197.745 148.951 197.745 C 148.951 197.745 152.754 204.608 153.135 210.33 C 153.515 216.052 152.754 219.112 152.754 219.112 C 152.754 219.112 175.262 209.189 180.604 204.608 C 185.945 200.027 197.458 165.989 197.458 165.989 C 201.244 164.45 202.575 160.457 203.284 158.193 C 204.027 155.945 205.41 153.681 205.41 153.681 C 205.566 153.473 205.739 153.249 205.912 153.024 C 207.018 151.503 208.021 150.396 208.712 149.515 C 209.265 148.806 209.611 148.235 209.663 147.717 C 209.749 146.593 208.47 147.25 207.554 148.011 C 207.243 148.27 206.672 148.858 206.015 149.515 C 204.805 150.759 203.319 152.263 202.731 152.453 C 202.731 152.453 202.593 152.35 202.593 152.108 C 202.593 152.021 203.249 150.897 204.045 149.515 C 205.099 147.682 206.413 145.4 206.828 144.328 C 207.554 142.444 206.724 141.96 205.912 142.531 C 205.151 143.049 201.797 148.304 200.968 149.515 L 200.812 149.722 C 200.38 150.241 199.636 150.275 199.775 149.515 L 199.809 149.342 C 200.086 148.391 203.077 140.819 203.077 139.505 C 203.077 138.192 202.731 137.431 201.711 138.088 C 200.708 138.745 197.147 147.285 196.698 147.941 C 196.248 148.598 195.332 148.979 195.401 148.218 C 195.47 147.457 197.441 139.609 197.527 138.935 C 197.614 138.278 197.061 137.345 196.162 138.192 C 195.246 139.039 193.517 144.605 192.514 147.25 C 192.151 148.201 191.771 148.961 191.425 149.515 C 190.82 150.483 190.302 150.794 190.146 150.379 C 190.059 150.171 189.921 149.86 189.748 149.515 C 189.403 148.737 188.936 147.717 188.677 147.06 C 188.314 146.126 187.311 145.279 186.948 147.25 C 186.844 147.838 186.861 148.633 186.913 149.515 Z " fill-rule="evenodd" fill="rgb(255,171,204)"/><path d=" M 192.739 160.492 C 192.739 160.474 194.312 154.839 190.544 151.451 L 191.391 150.517 C 195.764 154.424 193.966 160.82 193.966 160.837 L 192.739 160.492 Z " fill-rule="evenodd" fill="rgb(237,135,171)"/><path d=" M 117.091 196.086 L 117.091 196.103 C 117.575 196.172 132.546 198.8 134.983 199.301 C 137.455 199.785 153.29 195.446 153.29 195.446 C 153.29 195.446 157.474 198.8 158.978 207.702 C 160.447 216.605 159.202 219.82 159.202 219.82 C 159.202 219.82 138.199 228.464 137.213 229.207 C 136.263 229.916 132.321 245.007 133.721 256.659 L 133.946 258.215 L 133.981 258.388 L 134.05 258.906 C 135.917 271.214 138.856 283.436 138.856 283.436 C 138.856 283.436 122.45 292.892 103.608 293.065 C 84.765 293.238 74.566 287.914 74.566 287.914 C 74.566 287.914 71.696 268.604 71.004 247.203 C 70.935 245.63 70.935 244.109 70.935 242.622 L 69.933 242.812 L 60.874 231.524 C 60.874 231.524 67.927 204.383 72.82 200.874 C 77.729 197.365 100.064 193.959 100.064 193.959 C 100.064 193.959 100.565 198.506 108.05 200.061 C 115.518 201.617 117.091 196.086 117.091 196.086 Z " fill-rule="evenodd" fill="rgb(87,18,166)"/><path d=" M 57.521 249.295 L 60.874 231.524 L 82.621 237.211 L 77.072 256.296 C 76.381 257.471 80.149 290.368 80.149 290.368 C 80.149 290.368 82.103 291.388 84.955 294.241 C 87.825 297.11 92.008 302.677 92.008 302.677 C 92.008 302.677 82.327 306.048 77.314 301.052 C 72.301 296.056 70.866 290.455 70.866 290.455 C 70.866 290.455 54.253 260.531 57.521 249.295 Z " fill-rule="evenodd" fill="rgb(255,171,204)"/><path d=" M 119.442 175.722 L 117.057 170.311 C 117.057 170.311 121.5 169.637 124.352 169.879 C 127.204 170.121 127.567 170.242 127.567 170.242 C 127.567 170.242 128.069 178.522 127.567 183.224 C 127.066 187.926 124.559 193.7 119.754 194.201 C 114.948 194.703 110.816 191.591 110.816 191.591 L 119.442 175.722 Z " fill-rule="evenodd" fill="rgb(255,171,204)"/><path d=" M 126.081 185.696 C 126.081 185.696 125.268 184.209 124.11 183.708 C 121.016 182.429 117.333 184.158 115.933 187.148 C 115.069 188.998 110.142 187.961 111.335 181.893 C 112.51 175.843 112.977 173.578 112.977 173.578 L 108.776 175.566 C 108.776 175.566 107.895 182.446 107.964 186.664 C 108.033 190.882 111.369 192.991 113.703 194.098 C 116.071 195.221 119.408 195.342 121.742 194.72 C 125.355 193.769 128.017 188.255 127.325 184.745 L 126.081 185.696 Z " fill-rule="evenodd" fill="rgb(87,18,166)"/><path d=" M 117.143 188.669 L 116.746 185.834 L 115 187.356 L 110.557 181.876 C 110.557 181.876 108.448 184.209 110.177 186.906 C 111.905 189.603 117.143 188.669 117.143 188.669 Z " fill-rule="evenodd" fill="rgb(87,18,166)"/><path d=" M 128.76 167.337 L 127.636 171.694 C 127.636 171.694 131.353 170.622 132.39 164.692 C 133.946 155.686 121.724 154.683 120.151 160.129 C 117.385 156.55 109.278 157.017 108.379 161.287 C 104.991 160.44 102.294 163.05 102.622 166.438 C 102.951 169.809 128.76 167.337 128.76 167.337 Z " fill-rule="evenodd" fill="rgb(87,18,166)"/><path d=" M 90.003 219.751 L 85.232 236.105 L 84.004 235.759 L 88.775 219.406 L 90.003 219.751 Z " fill-rule="evenodd" fill="rgb(61,148,255)"/><path d=" M 134.776 210.779 C 135.122 212.681 135.502 215.101 135.727 217.66 C 135.969 220.218 136.055 222.932 135.848 225.473 L 134.568 225.387 C 134.776 222.898 134.689 220.253 134.465 217.763 C 134.24 215.257 133.86 212.888 133.514 211.004 L 134.776 210.779 Z " fill-rule="evenodd" fill="rgb(61,148,255)"/><path d=" M 507.568 173.785 L 507.568 164.191 L 507.568 154.597 L 499.271 159.403 L 490.973 164.191 L 499.271 168.98 L 507.568 173.785 Z " fill-rule="evenodd" fill="rgb(227,227,250)"/><path d=" M 533.741 311.043 C 531.614 311.043 529.886 309.332 529.886 307.189 C 529.886 305.062 531.614 303.334 533.741 303.334 C 535.867 303.334 537.596 305.062 537.596 307.189 C 537.596 309.332 535.867 311.043 533.741 311.043 Z  M 545.513 324.648 L 545.513 324.648 C 541.226 324.648 537.751 321.174 537.751 316.886 C 537.751 312.582 541.226 309.107 545.513 309.107 C 549.8 309.107 553.292 312.582 553.292 316.886 C 553.292 321.174 549.8 324.648 545.513 324.648 Z " fill-rule="evenodd" fill="rgb(255,255,255)"/><path d=" M 484.922 304.941 L 484.922 295.347 L 484.922 285.77 L 476.625 290.559 L 468.327 295.347 L 476.625 300.153 L 484.922 304.941 Z " fill-rule="evenodd" fill="rgb(255,255,255)"/><path d=" M 437.591 278.285 L 505.891 236.589 C 576.751 252.735 578.427 323.853 579.119 398.446 C 579.447 433.245 583.579 493.766 583.579 500.145 C 583.579 506.524 524.942 530.743 466.287 528.184 C 434.064 526.784 410.502 515.444 397.606 503.637 C 392.541 499.004 396.448 418.568 396.016 402.923 C 395.065 368.177 437.591 278.285 437.591 278.285 Z " fill-rule="evenodd" fill="rgb(38,120,250)"/><path d=" M 373.923 350.682 C 373.923 350.682 354.406 377.84 349.583 376.353 C 347.474 375.697 343.308 368.747 337.828 358.773 C 331.76 348.643 298.397 289.781 298.12 282.243 C 297.774 273.047 304.032 261.309 304.447 255.051 C 304.827 248.793 301.18 250.608 299.347 253.167 C 297.532 255.743 295.008 258.664 293.695 260.445 C 292.363 262.225 289.926 257.99 288.889 249.243 C 287.869 240.496 285.622 223.969 283.513 220.719 C 281.404 217.469 279.035 219.907 278.811 221.964 C 278.586 224.038 278.569 249.208 278.223 251.542 C 277.86 253.893 275.388 252.061 274.523 249.727 C 273.642 247.393 269.32 218.973 266.796 216.225 C 264.272 213.459 262.595 215.464 261.593 219.457 C 260.59 223.451 263.944 248.551 264.065 251.611 C 264.169 254.671 261.679 254.049 260.746 251.991 C 259.795 249.934 252.828 228.775 250.788 226.441 C 248.731 224.108 245.896 224.92 246.674 231.178 C 247.435 237.419 253.744 257.177 253.572 257.886 C 253.381 258.595 252.897 258.785 252.897 258.785 C 250.374 257.247 243.856 244.696 241.678 241.723 C 239.5 238.767 236.146 235.794 235.559 239.286 C 234.971 242.777 238.86 248.292 242.854 258.076 C 243.182 258.906 243.528 259.701 243.856 260.445 C 243.856 260.445 246.363 268.362 246.812 275.709 C 247.262 283.056 254.834 295.883 265.119 303.385 C 280.47 355.108 293.401 429.908 318.657 456.634 C 344.985 484.5 381.91 466.66 411.28 432.346 C 440.633 398.014 446.269 375.403 446.269 375.403 L 373.923 350.682 Z " fill-rule="evenodd" fill="rgb(255,171,204)"/><path d=" M 308.751 306.22 C 306.608 302.054 304.62 298.147 302.978 294.707 C 295.821 295.52 287.247 296.955 281.525 299.565 C 276.027 301.207 270.824 302.884 265.724 305.494 C 266.934 309.626 268.127 313.913 269.32 318.304 C 273.331 316.817 291.983 309.972 302.234 307.534 C 304.585 306.981 306.763 306.549 308.751 306.22 Z " fill-rule="evenodd" fill="rgb(87,18,166)"/><path d=" M 505.546 225.231 L 517.526 239.96 C 504.785 244.42 458.646 274.758 453.823 262.502 L 437.919 222.137 L 456.935 192.576 L 505.546 225.231 Z " fill-rule="evenodd" fill="rgb(255,171,204)"/><path d=" M 419.388 153.145 C 419.388 153.145 406.163 150.413 401.461 139.938 C 396.759 129.462 401.167 109.409 418.333 108.804 C 435.482 108.199 437.764 113.506 450.815 110.481 C 463.867 107.438 481.69 102.46 494.845 111.38 C 544.839 145.262 505.546 225.231 505.546 225.231 L 479.667 227.997 L 458.957 198.696 L 439.873 213.113 C 439.873 213.113 420.131 201.272 419.388 153.145 Z " fill-rule="evenodd" fill="rgb(87,18,166)"/><path d=" M 464.662 233.01 C 464.662 233.01 443.486 250.522 433.58 240.565 C 423.692 230.607 421.341 211.938 421.341 211.938 C 421.341 211.938 417.676 211.834 414.686 208.446 C 411.712 205.057 418.212 193.25 416.034 185.385 C 413.856 177.502 416.103 153.058 416.501 149.445 C 416.916 145.815 424.487 148.132 424.487 148.132 C 424.487 148.132 423.433 163.154 425.853 167.873 C 428.29 172.575 433.148 174.252 434.358 175.773 C 435.568 177.277 439.976 204.625 439.976 204.625 L 446.061 197.036 L 443.313 176.534 C 443.313 176.534 443.175 167.873 449.692 166.196 C 456.226 164.537 463.971 174.252 463.504 184.417 C 463.054 194.599 458.957 198.696 458.957 198.696 L 462.985 222.846 L 464.662 233.01 Z " fill-rule="evenodd" fill="rgb(255,171,204)"/><path d=" M 512.824 236.208 C 512.824 236.208 487.446 235.845 463.936 244.109 C 440.426 252.372 405.506 274.966 391.746 297.335 C 377.986 319.722 347.993 373.432 347.993 373.432 C 347.993 373.432 358.019 394.055 381.443 409.112 C 404.832 424.152 429.207 423.789 429.207 423.789 L 512.824 236.208 Z " fill-rule="evenodd" fill="rgb(38,120,250)"/><path d=" M 351.433 410.754 C 351.416 410.703 344.743 392.966 348.045 378.704 L 350.534 379.258 C 347.388 392.793 353.801 409.821 353.801 409.873 L 351.433 410.754 Z " fill-rule="evenodd" fill="rgb(237,135,171)"/><path d=" M 458.698 377.512 L 427.011 422.406 L 424.92 420.936 L 456.624 376.042 L 458.698 377.512 Z " fill-rule="evenodd" fill="rgb(255,255,255)"/><path d=" M 515.054 247.687 L 530.664 246.218 C 530.664 246.218 526.843 242.57 523.351 239.389 C 519.825 236.191 518.303 234.22 516.696 232.941 C 515.105 231.662 493.963 232.06 477.126 235.552 C 460.289 239.061 444.125 253.046 444.125 253.046 L 515.054 247.687 Z " fill-rule="evenodd" fill="rgb(38,120,250)"/><path d=" M 291.447 315.348 C 298.379 315.348 304.015 309.695 304.015 302.763 C 304.015 295.831 298.379 290.195 291.447 290.195 C 284.515 290.195 278.862 295.831 278.862 302.763 C 278.862 309.695 284.515 315.348 291.447 315.348 Z " fill-rule="evenodd" fill="rgb(87,18,166)"/><path d=" M 466.287 528.184 C 434.064 526.784 410.502 515.444 397.606 503.637 C 397.157 503.222 396.776 502.202 396.448 500.664 C 396.448 500.664 392.956 520.336 388.652 531.97 C 386.422 537.986 382.134 548.548 378.521 557.33 C 401.599 572.335 429.12 581.048 458.698 581.048 C 509.418 581.048 554.174 555.394 580.657 516.343 C 582.594 508.235 583.406 501.718 583.562 500.387 C 582.109 507.129 524.198 530.708 466.287 528.184 Z " fill-rule="evenodd" fill="rgb(87,18,166)"/></g></g></svg>